<svg width="106" height="40" viewBox="0 0 106 40" fill="none" xmlns="http://www.w3.org/2000/svg">
<path d="M47.956 0.709849C47.5274 0.248447 46.9915 0 46.3128 0H9.3055C8.62679 0 8.05525 0.248447 7.66231 0.709849C7.23366 1.17125 7.05505 1.73913 7.16222 2.41349L9.8056 27.6486C9.94848 29.1393 11.1987 30.9849 12.449 31.7657L25.523 39.4321C26.1303 39.787 26.9876 40 27.8449 40C28.7379 40 29.5595 39.787 30.1668 39.4321L43.2408 31.7657C44.5268 31.0559 45.7056 29.1393 45.8842 27.6486L48.5276 2.41349C48.5276 1.81012 48.3847 1.17125 47.956 0.709849ZM37.2396 28.6779C36.168 29.3878 34.7391 29.1038 34.0247 28.0745L27.3448 18.3141L23.3083 22.3248V26.7613C23.3083 28.039 22.2724 29.0683 20.9864 29.0683C19.7004 29.0683 18.6645 28.039 18.6645 26.7613V7.5244C18.6645 6.24667 19.7004 5.21739 20.9864 5.21739C22.2724 5.21739 23.3083 6.24667 23.3083 7.5244V15.7941L33.2745 5.89175C34.1676 5.00444 35.6679 5.00444 36.5609 5.89175C37.4539 6.77906 37.4539 8.26974 36.5609 9.15705L30.6669 14.9778C30.6669 15.0133 30.7026 15.0133 30.7026 15.0488L37.8469 25.4481C38.5613 26.5129 38.2755 27.9326 37.2396 28.6779Z" fill="#5D2E8E"/>
<path fill-rule="evenodd" clip-rule="evenodd" d="M105.683 9.15518V25.2333C105.683 27.3983 103.897 29.1729 101.718 29.1729H47.7432L47.886 27.4693H101.718C102.933 27.4693 103.969 26.44 103.969 25.2333V9.08419C103.969 7.87745 102.933 6.84817 101.718 6.84817H50.0651L50.2079 5.14453H101.718C103.897 5.14453 105.683 6.91915 105.683 9.15518Z" fill="#5D2E8E"/>
<path fill-rule="evenodd" clip-rule="evenodd" d="M54.5648 12.8257C54.5648 12.5773 54.4219 12.4708 54.2076 12.4708H53.4932V11.0156H55.1363C55.9222 11.0156 56.2794 11.2286 56.2794 12.0449V17.7592H57.0653C57.3868 17.7592 57.7797 17.6527 57.9941 17.4043L60.0659 14.5649H61.9949L59.6015 17.7947C59.1729 18.2916 58.9228 18.469 58.9228 18.469V18.5045C58.9228 18.5045 59.2443 18.611 59.4944 19.1789L60.7803 21.5569C60.9232 21.8053 61.1018 21.9118 61.5662 21.9118H62.0663V23.3315H60.816C59.9945 23.3315 59.7444 23.1895 59.3515 22.5152L57.744 19.5693C57.5297 19.2499 57.1725 19.2144 56.851 19.2144H56.1723V23.367H54.4576L54.5648 12.8257Z" fill="#5D2E8E"/>
<path fill-rule="evenodd" clip-rule="evenodd" d="M63.8177 12.8492C63.8177 12.6007 63.6748 12.4943 63.4605 12.4943H62.7461V11.0391H64.3893C65.1751 11.0391 65.5324 11.3585 65.5324 12.1038V15.5466C65.5324 15.9725 65.4966 16.2565 65.4966 16.2565H65.5324C65.8896 15.3691 67.0327 14.3044 68.783 14.3044C70.8548 14.3044 71.7836 15.4401 71.7836 17.7116V21.5093C71.7836 21.7578 71.9265 21.8643 72.1408 21.8643H72.8552V23.284H71.2121C70.4262 23.284 70.069 22.9645 70.069 22.1482V18.1021C70.069 16.8598 69.8189 15.9015 68.4258 15.9015C67.0684 15.9015 65.9967 16.8243 65.6395 18.0666C65.5324 18.4215 65.4966 18.8474 65.4966 19.2378V23.3549H63.782L63.8177 12.8492Z" fill="#5D2E8E"/>
<path d="M77.4611 22.1759C78.9256 22.1759 79.8544 20.6852 79.8544 19.4075V19.088H79.4257C78.1398 19.088 75.8536 19.1235 75.8536 20.7917C75.7822 21.537 76.3537 22.1759 77.4611 22.1759ZM79.4257 17.8813H79.783V17.7748C79.783 16.2486 79.2114 15.6807 77.8183 15.6807C77.3896 15.6807 76.3537 15.7872 76.3537 16.3551V16.852H74.7462V15.9647C74.7462 14.5095 76.961 14.332 77.7826 14.332C80.6403 14.332 81.3904 15.8227 81.3904 17.7748V21.537C81.3904 21.7854 81.5333 21.9274 81.7476 21.9274H82.4621V23.3471H80.8546C80.0687 23.3471 79.783 22.9922 79.783 22.3178C79.783 21.9984 79.8187 21.8209 79.8187 21.8209H79.783C79.783 21.8209 79.0685 23.5601 76.9967 23.5601C75.4964 23.5601 73.9961 22.6373 73.9961 20.8981C74.0675 18.0942 77.9612 17.8813 79.4257 17.8813Z" fill="#5D2E8E"/>
<path fill-rule="evenodd" clip-rule="evenodd" d="M83.9617 12.5607H83.1758V11.1055H84.819C85.6048 11.1055 85.962 11.4249 85.962 12.2412V21.5403C85.962 21.7887 86.1049 21.8952 86.3193 21.8952H87.0337V23.3149H85.3905C84.6046 23.3149 84.2474 22.9954 84.2474 22.1791V12.9156C84.2831 12.9156 84.3189 12.5607 83.9617 12.5607Z" fill="#5D2E8E"/>
<path fill-rule="evenodd" clip-rule="evenodd" d="M88.9644 15.9071H87.8213V14.5584H89.0001V12.1094H90.6433V14.5584H92.7508V15.9071H90.679V19.9177C90.679 21.6568 91.8935 21.9408 92.5008 21.9408C92.7508 21.9408 92.9294 21.9408 92.9294 21.9408V23.325C92.9294 23.325 92.7151 23.3605 92.3579 23.3605C91.2148 23.3605 89.0001 23.0056 89.0001 20.0597V15.9071H88.9644Z" fill="#5D2E8E"/>
<path fill-rule="evenodd" clip-rule="evenodd" d="M95.6801 11.082H96.7518C96.859 11.082 96.9661 11.1885 96.9661 11.295V12.6082C96.9661 12.7147 96.859 12.8212 96.7518 12.8212H95.6801C95.573 12.8212 95.4658 12.7147 95.4658 12.6082V11.295C95.4658 11.153 95.5373 11.082 95.6801 11.082Z" fill="#5D2E8E"/>
<path fill-rule="evenodd" clip-rule="evenodd" d="M95.3939 16.3648C95.3939 16.1164 95.251 16.0099 95.0367 16.0099H94.3223V14.5547H95.9654C96.7513 14.5547 97.1085 14.8741 97.1085 15.6904V21.5467C97.1085 21.7951 97.2514 21.9016 97.4657 21.9016H98.1802V23.3213H96.537C95.7511 23.3213 95.3939 23.0019 95.3939 22.1856V16.3648Z" fill="#5D2E8E"/>
<path fill-rule="evenodd" clip-rule="evenodd" d="M4.40407 6.5875L0.100446 7.56878L3.10592 20.2897L7.13349 19.4084L4.40407 6.5875Z" fill="#F9A61C"/>
<path d="M5.84506 6.36892L0 6.97266L1.4505 20.5355L7.29556 19.9318L5.84506 6.36892Z" fill="#F9A61C"/>
</svg>
