<svg width="96" height="41" viewBox="0 0 96 41" fill="none" xmlns="http://www.w3.org/2000/svg">
<path fill-rule="evenodd" clip-rule="evenodd" d="M96 21.1816C96 14.1747 92.694 8.64411 86.372 8.64411C80.0269 8.64411 76.185 14.1735 76.185 21.1257C76.185 29.365 80.7182 33.5251 87.2246 33.5251C90.3984 33.5251 92.7984 32.7869 94.6115 31.7463V26.2717C92.7984 27.2028 90.7185 27.7767 88.0784 27.7767C85.4916 27.7767 83.1983 26.8456 82.9048 23.6165H95.9432C95.9432 23.2593 95.9965 21.8377 95.9965 21.1805L96 21.1816ZM82.8375 18.5825C82.8375 15.4892 84.6773 14.2033 86.3581 14.2033C87.9844 14.2033 89.7186 15.4892 89.7186 18.5825H82.8375ZM65.9051 8.6465C63.2916 8.6465 61.6131 9.90501 60.6782 10.7813L60.3302 9.08465H54.4525V41L61.119 39.5498L61.1456 31.8034C62.1061 32.5154 63.519 33.5275 65.8668 33.5275C70.6402 33.5275 74.9867 29.5983 74.9867 20.909C74.96 12.9709 70.5602 8.6453 65.8923 8.6453L65.9051 8.6465ZM64.3043 27.5064C62.7314 27.5064 61.7987 26.9313 61.1572 26.2205L61.1306 16.0642C61.8242 15.2701 62.7836 14.7236 64.3043 14.7236C66.731 14.7236 68.4107 17.5156 68.4107 21.1007C68.4107 24.7679 66.7577 27.5064 64.3043 27.5064ZM45.2804 7.03197L51.9736 5.55557V0L45.2804 1.45021V7.03197ZM45.2804 9.11204H51.9736V33.0619H45.2804V9.11204ZM38.1058 11.1361L37.679 9.11204H31.9184V33.0643H38.5849V16.831C40.1579 14.7236 42.8247 15.107 43.6518 15.4082V9.11323C42.798 8.78461 39.6788 8.18214 38.1047 11.1373L38.1058 11.1361ZM24.7728 3.15879L18.2664 4.584L18.2398 26.5086C18.2398 30.5592 21.2001 33.543 25.1464 33.543C27.333 33.543 28.9326 33.1322 29.813 32.6381V27.0813C28.9593 27.4385 24.7462 28.6958 24.7462 24.6452V14.9426H29.813V9.11204H24.7438L24.7728 3.15879ZM6.74653 16.0511C6.74653 14.9831 7.60029 14.5747 9.01316 14.5747C11.3194 14.6252 13.5828 15.2243 15.6251 16.325V9.9062C13.4119 9.00131 11.2253 8.64769 9.01316 8.64769C3.59946 8.64769 0 11.5493 0 16.394C0 23.9487 10.1337 22.7438 10.1337 26.0026C10.1337 27.2611 9.06652 27.6719 7.5736 27.6719C5.36033 27.6719 2.53343 26.7408 0.293479 25.4811V31.9939C2.77355 33.0893 5.28146 33.5418 7.5736 33.5418C13.1207 33.5418 16.9348 30.7223 16.9348 25.8228C16.9081 17.6669 6.74653 19.1171 6.74653 16.0511Z" fill="#6772E5"/>
</svg>
