<svg width="235" height="72" viewBox="0 0 235 72" fill="none" xmlns="http://www.w3.org/2000/svg">
<g clip-path="url(#clip0_210_116)">
<mask id="mask0_210_116" style="mask-type:luminance" maskUnits="userSpaceOnUse" x="0" y="8" width="84" height="64">
<path d="M84.0001 8H0V72H84.0001V8Z" fill="white"/>
</mask>
<g mask="url(#mask0_210_116)">
<path opacity="0.8" d="M62.9433 50.6032C70.9411 51.4237 78.3871 42.8843 79.5744 31.53C80.7617 20.1757 75.2407 10.306 67.243 9.48558C59.2452 8.66512 51.7992 17.2045 50.6119 28.5588C49.4246 39.9131 54.9456 49.7828 62.9433 50.6032Z" fill="#F9B400"/>
<path d="M50.9561 56.0461C58.5653 53.4729 61.7152 42.6295 57.9914 31.8267C54.2677 21.0239 45.0805 14.3525 37.4712 16.9257C29.8619 19.499 26.7121 30.3423 30.4358 41.1451C34.1595 51.9479 43.3468 58.6193 50.9561 56.0461Z" fill="#F9B400"/>
<path d="M29.0777 43.2002H80.8463C81.2595 43.378 82.2097 44.0535 82.7055 45.3335C83.3253 46.9335 85.0777 70.4002 55.4623 65.6002C32.1603 65.6002 26.7229 64.889 26.9294 64.5335C31.2315 63.4669 31.77 59.2002 32.3084 56.0002C32.8469 52.8002 29.0777 43.2002 29.0777 43.2002Z" fill="#60A400"/>
<path d="M67.9727 21.2607C67.2929 21.2607 66.7422 21.8064 66.7422 22.4795V22.6742C66.7422 23.3475 67.2929 23.893 67.9727 23.893C68.6524 23.893 69.2032 23.3475 69.2032 22.6742V22.4795C69.2032 21.8062 68.6524 21.2607 67.9727 21.2607Z" fill="black"/>
<path d="M71.168 26.6982C70.4883 26.6982 69.9375 27.2437 69.9375 27.9169V28.1116C69.9375 28.7847 70.4883 29.3303 71.168 29.3303C71.8477 29.3303 72.3985 28.7849 72.3985 28.1116V27.9169C72.3985 27.2437 71.8477 26.6982 71.168 26.6982Z" fill="black"/>
<path d="M44.2251 25.5535L44.134 25.3807C43.8195 24.7839 43.0758 24.5526 42.4739 24.8643C41.8713 25.1758 41.638 25.912 41.9524 26.5087L42.0435 26.6814C42.2628 27.098 42.6915 27.3366 43.1352 27.3366C43.3271 27.3366 43.5217 27.292 43.7036 27.1978C44.306 26.8863 44.5395 26.1502 44.2251 25.5535Z" fill="black"/>
<path d="M49.6001 28.908L49.509 28.7353C49.1945 28.1384 48.451 27.9071 47.8489 28.2188C47.2463 28.5304 47.013 29.2665 47.3274 29.8632L47.4185 30.036C47.6378 30.4526 48.0664 30.6911 48.5102 30.6911C48.7021 30.6911 48.8967 30.6466 49.0786 30.5523C49.681 30.2409 49.9145 29.5047 49.6001 28.908Z" fill="black"/>
<path d="M41.9442 53.1561L38.2843 49.5308C37.8035 49.0549 37.0244 49.0548 36.5442 49.5307C36.0634 50.0067 36.0634 50.7784 36.544 51.2543L40.2039 54.8794C40.4443 55.1175 40.7589 55.2364 41.0739 55.2364C41.3888 55.2364 41.7038 55.1175 41.944 54.8796C42.4247 54.4036 42.4247 53.632 41.9442 53.1561Z" fill="black"/>
<path d="M52.8185 50.8852C52.4246 50.3369 51.6566 50.2085 51.1026 50.5991L38.3295 59.6063C37.7758 59.9966 37.6466 60.7576 38.0406 61.3059C38.2807 61.64 38.6593 61.8179 39.0441 61.8179C39.2908 61.8179 39.5402 61.7445 39.7566 61.5919L52.5298 52.5847C53.0833 52.1944 53.2126 51.4335 52.8185 50.8852Z" fill="black"/>
<path d="M57.3331 52.7231C56.9394 52.1747 56.1711 52.0464 55.6172 52.437L50.7142 55.8944C50.1605 56.285 50.0314 57.0459 50.4254 57.5942C50.6655 57.9283 51.0441 58.1063 51.4288 58.1063C51.6756 58.1063 51.9248 58.0328 52.1414 57.88L57.0444 54.4226C57.5981 54.0323 57.7272 53.2714 57.3331 52.7231Z" fill="black"/>
<path d="M83.7676 47.1934C83.37 46.6474 82.6012 46.5242 82.0497 46.9176L81.6399 47.2103C81.6415 47.1058 81.644 47.0015 81.644 46.8967C81.644 45.734 81.1873 44.64 80.3555 43.8139C79.5238 42.9922 78.4192 42.5399 77.2454 42.5399H76.8812C78.2317 39.9555 78.9172 36.8437 78.9172 33.2513C78.9172 26.2061 76.2509 18.5051 72.1246 13.6325C71.6876 13.1168 70.9116 13.0492 70.391 13.4821C69.8704 13.9146 69.8024 14.6834 70.2392 15.1991C74.0161 19.6587 76.4565 26.7448 76.4565 33.2513C76.4565 37.001 75.6427 40.1219 74.0377 42.5399H71.6015L72.684 41.7766C73.2378 41.3863 73.3669 40.6253 72.9727 40.0769C72.5788 39.5287 71.8108 39.4003 71.2568 39.791L67.3586 42.5399H60.0394C60.7771 38.8392 60.0088 34.7049 57.7796 30.4757C56.1839 27.4492 53.9178 24.5208 51.311 22.0397C53.9961 15.313 58.4396 11.0098 62.7692 11.0098C64.0767 11.0098 65.3945 11.3866 66.6855 12.1302C67.273 12.4682 68.0262 12.2708 68.3678 11.689C68.7092 11.1071 68.5099 10.3611 67.9224 10.0227C66.2508 9.06026 64.517 8.57227 62.7692 8.57227C57.5311 8.57227 52.4944 13.0303 49.3626 20.3217C48.2958 19.4524 47.1903 18.6619 46.0642 17.9731C40.7635 14.7306 35.7442 14.0308 31.9311 16.0025C28.4141 17.823 26.1614 21.8597 25.5875 27.3689C25.5176 28.0384 26.0091 28.6373 26.6851 28.7062C27.3627 28.7763 27.9658 28.2883 28.0351 27.619C28.5216 22.9502 30.3099 19.5919 33.0703 18.1629C39.7909 14.6877 50.8901 22.6746 55.5981 31.6039C57.6921 35.5767 58.3364 39.2505 57.521 42.54H43.7251C43.7217 42.54 43.7184 42.54 43.715 42.54H37.4097L35.3446 40.4946C34.864 40.0188 34.0849 40.0188 33.6044 40.4946C33.1239 40.9707 33.1239 41.7423 33.6044 42.2183L33.9291 42.5399H30.551C29.1804 39.4544 28.2795 35.9114 28 32.4744C27.9455 31.8035 27.353 31.3019 26.6748 31.3574C25.9975 31.4113 25.4926 31.9989 25.5471 32.6699C25.774 35.463 26.3561 38.2422 27.2546 40.8651C23.7474 37.9052 19.1666 36.3145 14.4504 36.5681C14.0107 36.5918 13.6173 36.8464 13.4189 37.2357C11.5684 40.8648 11.0482 44.9611 11.8157 48.8403C11.8229 48.958 11.8464 49.071 11.8847 49.177C12.1259 50.2839 12.4737 51.3708 12.9252 52.4226C7.65845 53.2317 2.98149 56.3065 0.178143 60.8866C-0.0500693 61.2594 -0.0595849 61.7247 0.152878 62.1067C2.13558 65.6707 5.26082 68.409 8.9324 69.9692C9.03034 70.0261 9.13257 70.0691 9.23773 70.0968C11.2654 70.9155 13.4518 71.3783 15.7004 71.4242C15.8236 71.4268 15.9455 71.428 16.0683 71.428C16.9437 71.428 17.8107 71.3625 18.665 71.2395C18.7454 71.2348 18.8253 71.2246 18.9029 71.2045C22.5194 70.6346 25.8818 68.9897 28.5363 66.5181C28.5965 66.5271 28.6576 66.5333 28.7202 66.5333H34.2416C34.9214 66.5333 35.4721 65.9878 35.4721 65.3145C35.4721 64.6413 34.9214 64.0957 34.2416 64.0957H30.7087C31.0315 63.6622 31.3376 63.2136 31.6223 62.7482C31.6311 62.7338 31.6382 62.7189 31.6461 62.7045C31.6536 62.6912 31.6624 62.6793 31.6693 62.6656C34.5353 57.0417 34.2109 50.2967 30.8434 44.9773H36.3901L39.7401 48.2955C39.9804 48.5334 40.2954 48.6523 40.6102 48.6523C40.9251 48.6523 41.2401 48.5334 41.4805 48.2955C41.961 47.8193 41.961 47.0478 41.4805 46.5719L39.8707 44.9773H43.2105L47.7787 49.502C48.019 49.74 48.334 49.8589 48.6489 49.8589C48.9637 49.8589 49.2787 49.74 49.5191 49.502C49.9996 49.0259 49.9996 48.2543 49.5191 47.7784L46.6913 44.9775H58.4455L58.4496 44.9778L58.4537 44.9775H63.9023L61.216 46.8718C60.6622 47.2621 60.5331 48.0231 60.9272 48.5714C61.1673 48.9055 61.5459 49.0834 61.9306 49.0834C62.1773 49.0834 62.4266 49.0099 62.6431 48.8572L68.1452 44.9773H74.6789L74.681 44.9775L74.6837 44.9773H77.2463C77.7639 44.9773 78.2514 45.1771 78.6162 45.5373C78.9823 45.9008 79.1839 46.3836 79.1839 46.8965C79.1839 47.6302 79.1369 48.3532 79.0466 49.063L70.0115 55.5155C69.4605 55.9093 69.3357 56.671 69.7331 57.2171C69.9738 57.5474 70.3503 57.7231 70.7323 57.7231C70.9817 57.7231 71.2334 57.6482 71.451 57.4928L78.1668 52.6967C76.8251 56.3948 74.2389 59.5097 70.9103 61.5438L57.1881 47.9522C56.7073 47.4765 55.9284 47.4765 55.4479 47.9522C54.9673 48.4284 54.9673 49.1999 55.4479 49.6759L68.6186 62.7213C66.8351 63.476 64.899 63.9425 62.8702 64.0631L57.5059 58.75C57.0254 58.2742 56.2463 58.2739 55.7658 58.7501C55.2852 59.2261 55.2852 59.9977 55.766 60.4736L59.4228 64.0954H47.3765L45.4024 62.1401C44.9217 61.6642 44.1428 61.6642 43.6621 62.1401C43.1816 62.6161 43.1816 63.3878 43.6621 63.8637L43.8961 64.0954H39.3681C38.6885 64.0954 38.1376 64.641 38.1376 65.3142C38.1376 65.9874 38.6885 66.5329 39.3681 66.5329H46.3559L49.1313 69.2818C49.3715 69.5197 49.6865 69.6386 50.0014 69.6386C50.3162 69.6386 50.6312 69.5197 50.8716 69.2818C51.3521 68.8057 51.3521 68.0342 50.8716 67.5582L49.8365 66.5329H61.8169C64.9191 66.5329 67.8566 65.823 70.474 64.5597L71.5075 65.5835C71.7478 65.8214 72.0628 65.9403 72.3777 65.9403C72.6925 65.9403 73.0075 65.8214 73.2479 65.5835C73.7284 65.1073 73.7284 64.3358 73.2479 63.8598L72.6907 63.308C77.1272 60.4151 80.3266 55.8076 81.319 50.4447L83.4894 48.8947C84.0403 48.5011 84.165 47.7395 83.7676 47.1934ZM28.603 46.028C28.7409 46.237 28.8716 46.4497 28.9985 46.6641L25.8837 52.7857L22.3273 47.3955L24.8164 42.0562C26.2864 43.135 27.5758 44.4712 28.603 46.028ZM24.5363 55.199L17.7528 55.5373C17.2955 55.0149 16.8701 54.4601 16.483 53.8732C15.6738 52.6467 15.0564 51.3279 14.6312 49.9599L21.0115 49.8568L24.5363 55.199ZM22.7131 40.7531L20.7388 44.9879L16.8152 39.041C18.8901 39.2235 20.8933 39.8134 22.7131 40.7531ZM14.7544 40.373L19.4202 47.4446L14.0849 47.5309C13.7471 45.1449 13.9667 42.6896 14.7544 40.373ZM14.1182 54.728C14.2172 54.8885 14.3184 55.0482 14.4228 55.2064C14.9694 56.035 15.5809 56.8088 16.2464 57.5255C16.2949 57.5881 16.3495 57.6456 16.4091 57.6977C17.5144 58.8572 18.7645 59.8599 20.1217 60.685L13.6477 60.5532L10.5955 55.4969C11.7258 55.1103 12.9065 54.8501 14.1182 54.728ZM8.3211 56.4789L10.7446 60.4939L3.57048 60.3479C4.8925 58.7485 6.51001 57.4379 8.3211 56.4789ZM9.11074 67.3702C6.93116 66.3001 5.00817 64.7355 3.52175 62.7847L12.0486 62.9584L9.11074 67.3702ZM17.854 68.8874C17.1606 68.9669 16.458 69.0012 15.7504 68.9873C14.2717 68.9569 12.8238 68.7178 11.4439 68.2938L14.9573 63.0175L21.3989 63.1487L17.854 68.8874ZM21.2092 68.1261L24.248 63.2069L27.9833 63.2829C28.0601 63.2899 28.1372 63.295 28.2141 63.3009C26.3625 65.5274 23.9272 67.1904 21.2092 68.1261ZM28.127 60.848C25.2719 60.5709 22.5577 59.5224 20.2782 57.852L26.095 57.5617L28.2651 60.8508L28.127 60.848ZM30.3322 59.528L27.4396 55.1439L30.3106 49.501C31.4219 52.7314 31.4402 56.2671 30.3322 59.528Z" fill="black"/>
<path d="M71.6915 49.2823C71.2938 48.7363 70.5248 48.6131 69.9737 49.0067L65.6377 52.1035C65.0867 52.497 64.962 53.2587 65.3595 53.8049C65.6 54.1352 65.9765 54.3109 66.3584 54.3109C66.608 54.3109 66.8595 54.236 67.0773 54.0805L71.4133 50.9837C71.9643 50.5901 72.089 49.8284 71.6915 49.2823Z" fill="black"/>
</g>
</g>
<path d="M107.56 13H114.56V16H112.16L120.08 38H122.72V41H114.24V38H116.6L114.8 32.76H103.84L102.04 38H104.44V41H95.96V38H98.56L106.48 16.04C102.32 16.0933 99.4 16.5733 97.72 17.48C96.04 18.36 95.2 19.72 95.2 21.56C95.2 22.36 95.3733 23.0267 95.72 23.56C96.0667 24.0667 96.5733 24.32 97.24 24.32C98.4933 24.32 99.12 23.2667 99.12 21.16H102.32C102.32 22.8933 101.92 24.36 101.12 25.56C100.32 26.7333 99.0267 27.32 97.24 27.32C95.4533 27.32 94.1333 26.76 93.28 25.64C92.4267 24.52 92 23.16 92 21.56C92 18.9467 93.24 16.8667 95.72 15.32C98.2 13.7733 102.147 13 107.56 13ZM109.32 16.8L104.72 30.16H113.92L109.32 16.8ZM123.543 13.6V11H130.023V38.4H133.503V41H123.503V38.4H126.623V13.6H123.543ZM138.42 38.48C136.74 36.5067 135.9 34.0133 135.9 31C135.9 27.9867 136.74 25.5067 138.42 23.56C140.1 21.5867 142.46 20.6 145.5 20.6C148.54 20.6 150.9 21.5867 152.58 23.56C154.26 25.5067 155.1 27.9867 155.1 31C155.1 34.0133 154.26 36.5067 152.58 38.48C150.9 40.4267 148.54 41.4 145.5 41.4C142.46 41.4 140.1 40.4267 138.42 38.48ZM140.94 25.68C139.847 27.0667 139.3 28.84 139.3 31C139.3 33.16 139.847 34.9333 140.94 36.32C142.033 37.7067 143.553 38.4 145.5 38.4C147.447 38.4 148.967 37.7067 150.06 36.32C151.153 34.9333 151.7 33.16 151.7 31C151.7 28.84 151.153 27.0667 150.06 25.68C148.967 24.2933 147.447 23.6 145.5 23.6C143.553 23.6 142.033 24.2933 140.94 25.68ZM158.092 35.24H160.892V37.76C161.906 38.16 163.132 38.36 164.572 38.36C166.039 38.36 167.146 38.1333 167.892 37.68C168.666 37.2 169.052 36.6133 169.052 35.92C169.052 35.2267 168.759 34.6667 168.172 34.24C167.612 33.7867 166.252 32.9867 164.092 31.84C161.959 30.6933 160.466 29.7333 159.612 28.96C158.759 28.16 158.332 27.12 158.332 25.84C158.332 24.1867 158.972 22.9067 160.252 22C161.559 21.0667 163.332 20.6 165.572 20.6C167.812 20.6 169.932 21.1467 171.932 22.24V27H169.132V24.32C167.959 23.84 166.706 23.6 165.372 23.6C164.066 23.6 163.132 23.8533 162.572 24.36C162.012 24.84 161.732 25.3733 161.732 25.96C161.732 26.5467 161.946 27.0133 162.372 27.36C163.092 27.9467 164.386 28.7067 166.252 29.64C168.626 30.9467 170.252 32 171.132 32.8C172.012 33.6 172.452 34.6267 172.452 35.88C172.452 37.5333 171.746 38.8667 170.332 39.88C168.919 40.8667 166.946 41.36 164.412 41.36C161.906 41.36 159.799 40.8533 158.092 39.84V35.24ZM174.87 23.6V21.4L177.95 21H178.35C179.204 19 179.777 17.24 180.07 15.72H181.75V21H187.71V23.6H181.75V35.88C181.75 36.7867 181.897 37.44 182.19 37.84C182.51 38.24 183.044 38.44 183.79 38.44C184.537 38.44 185.537 38.1867 186.79 37.68L188.11 39.96C186.59 40.92 184.964 41.4 183.23 41.4C181.497 41.4 180.244 40.9467 179.47 40.04C178.724 39.1333 178.35 37.96 178.35 36.52V23.6H174.87ZM195.994 41.4C194.154 41.4 192.714 40.88 191.674 39.84C190.634 38.7733 190.114 37.36 190.114 35.6C190.114 33.8133 190.807 32.32 192.194 31.12C193.581 29.92 195.634 29.32 198.354 29.32H202.714V27.28C202.714 24.8267 201.541 23.6 199.194 23.6C197.221 23.6 195.407 23.84 193.754 24.32V27H190.954V22.24C192.154 21.7333 193.567 21.3333 195.194 21.04C196.847 20.7467 198.221 20.6 199.314 20.6C201.447 20.6 203.114 21.2133 204.314 22.44C205.514 23.64 206.114 25.2533 206.114 27.28V38.6H209.394V40.28C208.407 40.8933 207.274 41.2 205.994 41.2C204.714 41.2 203.847 40.9867 203.394 40.56C202.941 40.1333 202.714 39.4133 202.714 38.4C200.714 40.4 198.474 41.4 195.994 41.4ZM196.354 38.4C198.647 38.4 200.767 37.1067 202.714 34.52V31.96H198.314C196.687 31.96 195.474 32.28 194.674 32.92C193.901 33.56 193.514 34.3733 193.514 35.36C193.514 36.32 193.754 37.0667 194.234 37.6C194.714 38.1333 195.421 38.4 196.354 38.4ZM213.293 13.6H210.213V11H216.693V23.2C218.266 21.4667 220.279 20.6 222.733 20.6C225.213 20.6 227.119 21.5867 228.453 23.56C229.813 25.5067 230.493 28 230.493 31.04C230.493 34.0533 229.653 36.5333 227.973 38.48C226.293 40.4267 223.853 41.4 220.653 41.4C218.333 41.4 215.879 41 213.293 40.2V13.6ZM225.773 25.76C224.919 24.32 223.693 23.6 222.093 23.6C220.493 23.6 219.186 24.2267 218.173 25.48C217.186 26.7333 216.693 28.24 216.693 30V37.72C218.053 38.1733 219.266 38.4 220.333 38.4C222.546 38.4 224.226 37.72 225.373 36.36C226.519 35 227.093 33.2533 227.093 31.12C227.093 28.9867 226.653 27.2 225.773 25.76Z" fill="white"/>
<path d="M92.1206 53.4995H95.377L99.9321 64.5581L104.487 53.4995H107.744L101.389 68H98.4756L92.1206 53.4995ZM109.061 62.4893C109.061 61.7471 109.213 61.0389 109.516 60.3647C109.819 59.6844 110.255 59.0845 110.824 58.5649C111.393 58.0454 112.089 57.631 112.911 57.3218C113.74 57.0125 114.68 56.8579 115.731 56.8579C116.777 56.8579 117.717 57.0156 118.552 57.3311C119.393 57.6403 120.104 58.0671 120.686 58.6113C121.273 59.1556 121.722 59.7957 122.031 60.5317C122.346 61.2677 122.504 62.0563 122.504 62.8975C122.504 63.0026 122.501 63.117 122.495 63.2407C122.495 63.3582 122.488 63.4665 122.476 63.5654H112.123C112.24 63.8932 112.429 64.1932 112.688 64.4653C112.954 64.7375 113.285 64.9725 113.681 65.1704C114.077 65.3683 114.535 65.5229 115.054 65.6343C115.574 65.7394 116.149 65.792 116.78 65.792C117.411 65.792 118.038 65.7271 118.663 65.5972C119.288 65.4611 119.885 65.291 120.454 65.0869L121.381 67.1836C121.023 67.3506 120.658 67.499 120.287 67.6289C119.922 67.7526 119.538 67.8577 119.136 67.9443C118.74 68.0247 118.323 68.0866 117.884 68.1299C117.451 68.1732 116.993 68.1948 116.511 68.1948C115.28 68.1948 114.201 68.0464 113.273 67.7495C112.345 67.4526 111.569 67.0475 110.944 66.5342C110.32 66.0208 109.85 65.4178 109.534 64.7251C109.219 64.0324 109.061 63.2871 109.061 62.4893ZM119.591 61.4224C119.492 61.1193 119.337 60.8379 119.127 60.5781C118.923 60.3122 118.666 60.0833 118.357 59.8916C118.048 59.6937 117.689 59.5391 117.281 59.4277C116.873 59.3164 116.424 59.2607 115.936 59.2607C115.416 59.2607 114.943 59.3195 114.516 59.437C114.089 59.5545 113.715 59.7122 113.394 59.9102C113.072 60.1081 112.803 60.3369 112.586 60.5967C112.376 60.8564 112.222 61.1317 112.123 61.4224H119.591ZM125.463 57.0527H128.209V57.9805C128.939 57.5661 129.635 57.2754 130.297 57.1084C130.965 56.9414 131.617 56.8579 132.254 56.8579C133.089 56.8579 133.862 56.9816 134.574 57.229C135.285 57.4702 135.9 57.832 136.42 58.3145C136.939 58.7969 137.345 59.3999 137.635 60.1235C137.932 60.841 138.081 61.6729 138.081 62.6191V68H135.344V63.0645C135.344 62.4645 135.257 61.9295 135.084 61.4595C134.917 60.9832 134.673 60.5843 134.351 60.2627C134.036 59.9349 133.649 59.6875 133.191 59.5205C132.74 59.3473 132.233 59.2607 131.67 59.2607C131.373 59.2607 131.067 59.2917 130.751 59.3535C130.442 59.4154 130.136 59.505 129.833 59.6226C129.536 59.7339 129.249 59.8761 128.97 60.0493C128.692 60.2163 128.438 60.408 128.209 60.6245V68H125.463V57.0527ZM140.613 62.5728C140.613 61.7007 140.777 60.9152 141.105 60.2163C141.433 59.5112 141.884 58.9113 142.459 58.4165C143.041 57.9155 143.727 57.5321 144.519 57.2661C145.317 56.994 146.18 56.8579 147.107 56.8579C147.503 56.8579 147.893 56.8826 148.276 56.9321C148.666 56.9816 149.037 57.0496 149.39 57.1362C149.748 57.2228 150.082 57.328 150.392 57.4517C150.707 57.5692 150.985 57.6991 151.227 57.8413V52.6089H153.973V68H151.227V66.9702C150.985 67.1372 150.701 67.2949 150.373 67.4434C150.045 67.5918 149.693 67.7217 149.315 67.833C148.938 67.9443 148.545 68.0309 148.137 68.0928C147.735 68.1608 147.336 68.1948 146.94 68.1948C146.013 68.1948 145.159 68.0588 144.38 67.7866C143.607 67.5145 142.942 67.131 142.385 66.6362C141.829 66.1414 141.393 65.5508 141.077 64.8643C140.768 64.1715 140.613 63.4077 140.613 62.5728ZM143.499 62.5728C143.499 63.0119 143.585 63.4263 143.758 63.8159C143.938 64.2056 144.191 64.5488 144.519 64.8457C144.853 65.1364 145.252 65.3683 145.716 65.5415C146.186 65.7085 146.712 65.792 147.293 65.792C147.664 65.792 148.035 65.758 148.406 65.6899C148.777 65.6157 149.133 65.5137 149.473 65.3838C149.819 65.2539 150.141 65.0962 150.438 64.9106C150.741 64.7251 151.004 64.5179 151.227 64.2891V60.4946C150.948 60.272 150.654 60.0833 150.345 59.9287C150.036 59.7741 149.721 59.6473 149.399 59.5483C149.077 59.4494 148.753 59.3783 148.425 59.335C148.097 59.2855 147.778 59.2607 147.469 59.2607C146.838 59.2607 146.276 59.3473 145.781 59.5205C145.292 59.6875 144.878 59.9194 144.538 60.2163C144.204 60.5132 143.947 60.8626 143.768 61.2646C143.588 61.6667 143.499 62.1027 143.499 62.5728ZM156.682 62.5264C156.682 61.7409 156.839 61.0049 157.155 60.3184C157.476 59.6318 157.931 59.0319 158.519 58.5186C159.112 58.0052 159.827 57.6001 160.662 57.3032C161.503 57.0063 162.446 56.8579 163.491 56.8579C164.536 56.8579 165.477 57.0063 166.312 57.3032C167.153 57.6001 167.867 58.0052 168.455 58.5186C169.048 59.0319 169.503 59.6318 169.818 60.3184C170.14 61.0049 170.301 61.7409 170.301 62.5264C170.301 63.3118 170.14 64.0479 169.818 64.7344C169.503 65.4209 169.048 66.0208 168.455 66.5342C167.867 67.0475 167.153 67.4526 166.312 67.7495C165.477 68.0464 164.536 68.1948 163.491 68.1948C162.446 68.1948 161.503 68.0464 160.662 67.7495C159.827 67.4526 159.112 67.0475 158.519 66.5342C157.931 66.0208 157.476 65.4209 157.155 64.7344C156.839 64.0479 156.682 63.3118 156.682 62.5264ZM159.567 62.5264C159.567 62.9655 159.653 63.383 159.827 63.7788C160.006 64.1685 160.263 64.5148 160.597 64.8179C160.937 65.1147 161.348 65.3529 161.831 65.5322C162.319 65.7054 162.873 65.792 163.491 65.792C164.11 65.792 164.66 65.7054 165.143 65.5322C165.631 65.3529 166.042 65.1147 166.376 64.8179C166.717 64.5148 166.973 64.1685 167.146 63.7788C167.326 63.383 167.416 62.9655 167.416 62.5264C167.416 62.0872 167.326 61.6698 167.146 61.2739C166.973 60.8781 166.717 60.5317 166.376 60.2349C166.042 59.9318 165.631 59.6937 165.143 59.5205C164.66 59.3411 164.11 59.2515 163.491 59.2515C162.873 59.2515 162.319 59.3411 161.831 59.5205C161.348 59.6937 160.937 59.9318 160.597 60.2349C160.263 60.5317 160.006 60.8781 159.827 61.2739C159.653 61.6698 159.567 62.0872 159.567 62.5264ZM173.075 57.0527H175.821V58.6299C176.427 58.1784 177.067 57.7887 177.741 57.4609C178.415 57.1331 179.086 56.8826 179.754 56.7095L180.562 59.2236C179.504 59.3288 178.573 59.5669 177.769 59.938C176.971 60.3029 176.322 60.8193 175.821 61.4873V68H173.075V57.0527ZM183.048 64.6416C183.79 65.0869 184.606 65.4147 185.497 65.625C186.388 65.8353 187.3 65.9404 188.234 65.9404C188.865 65.9404 189.39 65.8971 189.811 65.8105C190.232 65.724 190.569 65.6126 190.822 65.4766C191.076 65.3405 191.255 65.1859 191.36 65.0127C191.465 64.8395 191.518 64.6632 191.518 64.4839C191.518 64.2241 191.404 64.0015 191.175 63.8159C190.952 63.6304 190.581 63.5376 190.062 63.5376C189.82 63.5376 189.561 63.5531 189.282 63.584C189.004 63.6149 188.71 63.6489 188.401 63.686C188.098 63.717 187.779 63.7479 187.445 63.7788C187.118 63.8097 186.784 63.8252 186.443 63.8252C185.701 63.8252 185.067 63.7448 184.542 63.584C184.022 63.4232 183.598 63.2036 183.271 62.9253C182.943 62.647 182.705 62.3192 182.556 61.9419C182.408 61.5584 182.333 61.1471 182.333 60.708C182.333 60.1514 182.463 59.638 182.723 59.168C182.983 58.6979 183.354 58.2928 183.836 57.9526C184.319 57.6063 184.9 57.3372 185.581 57.1455C186.267 56.9538 187.031 56.8579 187.872 56.8579C188.311 56.8579 188.769 56.8857 189.245 56.9414C189.728 56.9909 190.201 57.0589 190.665 57.1455C191.128 57.2321 191.574 57.3341 192 57.4517C192.427 57.563 192.805 57.6836 193.132 57.8135L192.27 59.9473C191.571 59.6875 190.872 59.4834 190.173 59.335C189.48 59.1803 188.766 59.103 188.03 59.103C187.516 59.103 187.08 59.1432 186.722 59.2236C186.369 59.2979 186.082 59.3999 185.859 59.5298C185.636 59.6535 185.472 59.7988 185.367 59.9658C185.268 60.1266 185.219 60.2967 185.219 60.4761C185.219 60.606 185.243 60.7235 185.293 60.8286C185.349 60.9338 185.435 61.0265 185.553 61.1069C185.676 61.1812 185.834 61.2399 186.026 61.2832C186.224 61.3203 186.465 61.3389 186.75 61.3389C187.009 61.3389 187.285 61.3234 187.575 61.2925C187.866 61.2616 188.169 61.2306 188.484 61.1997C188.8 61.1626 189.125 61.1286 189.458 61.0977C189.799 61.0667 190.145 61.0513 190.498 61.0513C191.153 61.0513 191.725 61.1286 192.214 61.2832C192.709 61.4378 193.117 61.6543 193.438 61.9326C193.76 62.2109 194.001 62.5387 194.162 62.916C194.323 63.2933 194.403 63.7046 194.403 64.1499C194.403 64.7251 194.27 65.2601 194.004 65.7549C193.738 66.2497 193.343 66.6795 192.817 67.0444C192.291 67.4032 191.636 67.6846 190.85 67.8887C190.071 68.0928 189.168 68.1948 188.141 68.1948C187.51 68.1948 186.901 68.1546 186.313 68.0742C185.726 68 185.166 67.8979 184.634 67.7681C184.102 67.632 183.601 67.4743 183.131 67.2949C182.667 67.1156 182.244 66.9238 181.86 66.7197L183.048 64.6416Z" fill="white"/>
<defs>
<clipPath id="clip0_210_116">
<rect width="84" height="64" fill="white" transform="translate(0 8)"/>
</clipPath>
</defs>
</svg>
