<svg width="229" height="73" viewBox="0 0 229 73" fill="none" xmlns="http://www.w3.org/2000/svg">
<g filter="url(#filter0_b_242_963)">
<path d="M56.8331 54.1109H28.2499L22.8055 16H16" stroke="#1E1D00" stroke-width="5.5" stroke-linecap="round" stroke-linejoin="round"/>
<path d="M23.583 21.4453H67.7217L59.5551 45.9452H27.083" stroke="#1E1D00" stroke-width="5.5" stroke-linecap="round" stroke-linejoin="round"/>
<path d="M35.0557 65.0002C38.0627 65.0002 40.5002 62.5627 40.5002 59.5557C40.5002 56.5488 38.0627 54.1113 35.0557 54.1113C32.0489 54.1113 29.6113 56.5488 29.6113 59.5557C29.6113 62.5627 32.0489 65.0002 35.0557 65.0002Z" stroke="#1E1D00" stroke-width="5.5" stroke-linecap="round" stroke-linejoin="round"/>
<path d="M56.8331 65.0002C59.84 65.0002 62.2775 62.5627 62.2775 59.5557C62.2775 56.5488 59.84 54.1113 56.8331 54.1113C53.8261 54.1113 51.3887 56.5488 51.3887 59.5557C51.3887 62.5627 53.8261 65.0002 56.8331 65.0002Z" stroke="#1E1D00" stroke-width="5.5" stroke-linecap="round" stroke-linejoin="round"/>
</g>
<path d="M101.56 13H108.56V16H106.16L114.08 38H116.72V41H108.24V38H110.6L108.8 32.76H97.84L96.04 38H98.44V41H89.96V38H92.56L100.48 16.04C96.32 16.0933 93.4 16.5733 91.72 17.48C90.04 18.36 89.2 19.72 89.2 21.56C89.2 22.36 89.3733 23.0267 89.72 23.56C90.0667 24.0667 90.5733 24.32 91.24 24.32C92.4933 24.32 93.12 23.2667 93.12 21.16H96.32C96.32 22.8933 95.92 24.36 95.12 25.56C94.32 26.7333 93.0267 27.32 91.24 27.32C89.4533 27.32 88.1333 26.76 87.28 25.64C86.4267 24.52 86 23.16 86 21.56C86 18.9467 87.24 16.8667 89.72 15.32C92.2 13.7733 96.1467 13 101.56 13ZM103.32 16.8L98.72 30.16H107.92L103.32 16.8ZM117.543 13.6V11H124.023V38.4H127.503V41H117.503V38.4H120.623V13.6H117.543ZM132.42 38.48C130.74 36.5067 129.9 34.0133 129.9 31C129.9 27.9867 130.74 25.5067 132.42 23.56C134.1 21.5867 136.46 20.6 139.5 20.6C142.54 20.6 144.9 21.5867 146.58 23.56C148.26 25.5067 149.1 27.9867 149.1 31C149.1 34.0133 148.26 36.5067 146.58 38.48C144.9 40.4267 142.54 41.4 139.5 41.4C136.46 41.4 134.1 40.4267 132.42 38.48ZM134.94 25.68C133.847 27.0667 133.3 28.84 133.3 31C133.3 33.16 133.847 34.9333 134.94 36.32C136.033 37.7067 137.553 38.4 139.5 38.4C141.447 38.4 142.967 37.7067 144.06 36.32C145.153 34.9333 145.7 33.16 145.7 31C145.7 28.84 145.153 27.0667 144.06 25.68C142.967 24.2933 141.447 23.6 139.5 23.6C137.553 23.6 136.033 24.2933 134.94 25.68ZM152.092 35.24H154.892V37.76C155.906 38.16 157.132 38.36 158.572 38.36C160.039 38.36 161.146 38.1333 161.892 37.68C162.666 37.2 163.052 36.6133 163.052 35.92C163.052 35.2267 162.759 34.6667 162.172 34.24C161.612 33.7867 160.252 32.9867 158.092 31.84C155.959 30.6933 154.466 29.7333 153.612 28.96C152.759 28.16 152.332 27.12 152.332 25.84C152.332 24.1867 152.972 22.9067 154.252 22C155.559 21.0667 157.332 20.6 159.572 20.6C161.812 20.6 163.932 21.1467 165.932 22.24V27H163.132V24.32C161.959 23.84 160.706 23.6 159.372 23.6C158.066 23.6 157.132 23.8533 156.572 24.36C156.012 24.84 155.732 25.3733 155.732 25.96C155.732 26.5467 155.946 27.0133 156.372 27.36C157.092 27.9467 158.386 28.7067 160.252 29.64C162.626 30.9467 164.252 32 165.132 32.8C166.012 33.6 166.452 34.6267 166.452 35.88C166.452 37.5333 165.746 38.8667 164.332 39.88C162.919 40.8667 160.946 41.36 158.412 41.36C155.906 41.36 153.799 40.8533 152.092 39.84V35.24ZM168.87 23.6V21.4L171.95 21H172.35C173.204 19 173.777 17.24 174.07 15.72H175.75V21H181.71V23.6H175.75V35.88C175.75 36.7867 175.897 37.44 176.19 37.84C176.51 38.24 177.044 38.44 177.79 38.44C178.537 38.44 179.537 38.1867 180.79 37.68L182.11 39.96C180.59 40.92 178.964 41.4 177.23 41.4C175.497 41.4 174.244 40.9467 173.47 40.04C172.724 39.1333 172.35 37.96 172.35 36.52V23.6H168.87ZM189.994 41.4C188.154 41.4 186.714 40.88 185.674 39.84C184.634 38.7733 184.114 37.36 184.114 35.6C184.114 33.8133 184.807 32.32 186.194 31.12C187.581 29.92 189.634 29.32 192.354 29.32H196.714V27.28C196.714 24.8267 195.541 23.6 193.194 23.6C191.221 23.6 189.407 23.84 187.754 24.32V27H184.954V22.24C186.154 21.7333 187.567 21.3333 189.194 21.04C190.847 20.7467 192.221 20.6 193.314 20.6C195.447 20.6 197.114 21.2133 198.314 22.44C199.514 23.64 200.114 25.2533 200.114 27.28V38.6H203.394V40.28C202.407 40.8933 201.274 41.2 199.994 41.2C198.714 41.2 197.847 40.9867 197.394 40.56C196.941 40.1333 196.714 39.4133 196.714 38.4C194.714 40.4 192.474 41.4 189.994 41.4ZM190.354 38.4C192.647 38.4 194.767 37.1067 196.714 34.52V31.96H192.314C190.687 31.96 189.474 32.28 188.674 32.92C187.901 33.56 187.514 34.3733 187.514 35.36C187.514 36.32 187.754 37.0667 188.234 37.6C188.714 38.1333 189.421 38.4 190.354 38.4ZM207.293 13.6H204.213V11H210.693V23.2C212.266 21.4667 214.279 20.6 216.733 20.6C219.213 20.6 221.119 21.5867 222.453 23.56C223.813 25.5067 224.493 28 224.493 31.04C224.493 34.0533 223.653 36.5333 221.973 38.48C220.293 40.4267 217.853 41.4 214.653 41.4C212.333 41.4 209.879 41 207.293 40.2V13.6ZM219.773 25.76C218.919 24.32 217.693 23.6 216.093 23.6C214.493 23.6 213.186 24.2267 212.173 25.48C211.186 26.7333 210.693 28.24 210.693 30V37.72C212.053 38.1733 213.266 38.4 214.333 38.4C216.546 38.4 218.226 37.72 219.373 36.36C220.519 35 221.093 33.2533 221.093 31.12C221.093 28.9867 220.653 27.2 219.773 25.76Z" fill="#9F0202"/>
<path d="M101.56 13H108.56V16H106.16L114.08 38H116.72V41H108.24V38H110.6L108.8 32.76H97.84L96.04 38H98.44V41H89.96V38H92.56L100.48 16.04C96.32 16.0933 93.4 16.5733 91.72 17.48C90.04 18.36 89.2 19.72 89.2 21.56C89.2 22.36 89.3733 23.0267 89.72 23.56C90.0667 24.0667 90.5733 24.32 91.24 24.32C92.4933 24.32 93.12 23.2667 93.12 21.16H96.32C96.32 22.8933 95.92 24.36 95.12 25.56C94.32 26.7333 93.0267 27.32 91.24 27.32C89.4533 27.32 88.1333 26.76 87.28 25.64C86.4267 24.52 86 23.16 86 21.56C86 18.9467 87.24 16.8667 89.72 15.32C92.2 13.7733 96.1467 13 101.56 13ZM103.32 16.8L98.72 30.16H107.92L103.32 16.8ZM117.543 13.6V11H124.023V38.4H127.503V41H117.503V38.4H120.623V13.6H117.543ZM132.42 38.48C130.74 36.5067 129.9 34.0133 129.9 31C129.9 27.9867 130.74 25.5067 132.42 23.56C134.1 21.5867 136.46 20.6 139.5 20.6C142.54 20.6 144.9 21.5867 146.58 23.56C148.26 25.5067 149.1 27.9867 149.1 31C149.1 34.0133 148.26 36.5067 146.58 38.48C144.9 40.4267 142.54 41.4 139.5 41.4C136.46 41.4 134.1 40.4267 132.42 38.48ZM134.94 25.68C133.847 27.0667 133.3 28.84 133.3 31C133.3 33.16 133.847 34.9333 134.94 36.32C136.033 37.7067 137.553 38.4 139.5 38.4C141.447 38.4 142.967 37.7067 144.06 36.32C145.153 34.9333 145.7 33.16 145.7 31C145.7 28.84 145.153 27.0667 144.06 25.68C142.967 24.2933 141.447 23.6 139.5 23.6C137.553 23.6 136.033 24.2933 134.94 25.68ZM152.092 35.24H154.892V37.76C155.906 38.16 157.132 38.36 158.572 38.36C160.039 38.36 161.146 38.1333 161.892 37.68C162.666 37.2 163.052 36.6133 163.052 35.92C163.052 35.2267 162.759 34.6667 162.172 34.24C161.612 33.7867 160.252 32.9867 158.092 31.84C155.959 30.6933 154.466 29.7333 153.612 28.96C152.759 28.16 152.332 27.12 152.332 25.84C152.332 24.1867 152.972 22.9067 154.252 22C155.559 21.0667 157.332 20.6 159.572 20.6C161.812 20.6 163.932 21.1467 165.932 22.24V27H163.132V24.32C161.959 23.84 160.706 23.6 159.372 23.6C158.066 23.6 157.132 23.8533 156.572 24.36C156.012 24.84 155.732 25.3733 155.732 25.96C155.732 26.5467 155.946 27.0133 156.372 27.36C157.092 27.9467 158.386 28.7067 160.252 29.64C162.626 30.9467 164.252 32 165.132 32.8C166.012 33.6 166.452 34.6267 166.452 35.88C166.452 37.5333 165.746 38.8667 164.332 39.88C162.919 40.8667 160.946 41.36 158.412 41.36C155.906 41.36 153.799 40.8533 152.092 39.84V35.24ZM168.87 23.6V21.4L171.95 21H172.35C173.204 19 173.777 17.24 174.07 15.72H175.75V21H181.71V23.6H175.75V35.88C175.75 36.7867 175.897 37.44 176.19 37.84C176.51 38.24 177.044 38.44 177.79 38.44C178.537 38.44 179.537 38.1867 180.79 37.68L182.11 39.96C180.59 40.92 178.964 41.4 177.23 41.4C175.497 41.4 174.244 40.9467 173.47 40.04C172.724 39.1333 172.35 37.96 172.35 36.52V23.6H168.87ZM189.994 41.4C188.154 41.4 186.714 40.88 185.674 39.84C184.634 38.7733 184.114 37.36 184.114 35.6C184.114 33.8133 184.807 32.32 186.194 31.12C187.581 29.92 189.634 29.32 192.354 29.32H196.714V27.28C196.714 24.8267 195.541 23.6 193.194 23.6C191.221 23.6 189.407 23.84 187.754 24.32V27H184.954V22.24C186.154 21.7333 187.567 21.3333 189.194 21.04C190.847 20.7467 192.221 20.6 193.314 20.6C195.447 20.6 197.114 21.2133 198.314 22.44C199.514 23.64 200.114 25.2533 200.114 27.28V38.6H203.394V40.28C202.407 40.8933 201.274 41.2 199.994 41.2C198.714 41.2 197.847 40.9867 197.394 40.56C196.941 40.1333 196.714 39.4133 196.714 38.4C194.714 40.4 192.474 41.4 189.994 41.4ZM190.354 38.4C192.647 38.4 194.767 37.1067 196.714 34.52V31.96H192.314C190.687 31.96 189.474 32.28 188.674 32.92C187.901 33.56 187.514 34.3733 187.514 35.36C187.514 36.32 187.754 37.0667 188.234 37.6C188.714 38.1333 189.421 38.4 190.354 38.4ZM207.293 13.6H204.213V11H210.693V23.2C212.266 21.4667 214.279 20.6 216.733 20.6C219.213 20.6 221.119 21.5867 222.453 23.56C223.813 25.5067 224.493 28 224.493 31.04C224.493 34.0533 223.653 36.5333 221.973 38.48C220.293 40.4267 217.853 41.4 214.653 41.4C212.333 41.4 209.879 41 207.293 40.2V13.6ZM219.773 25.76C218.919 24.32 217.693 23.6 216.093 23.6C214.493 23.6 213.186 24.2267 212.173 25.48C211.186 26.7333 210.693 28.24 210.693 30V37.72C212.053 38.1733 213.266 38.4 214.333 38.4C216.546 38.4 218.226 37.72 219.373 36.36C220.519 35 221.093 33.2533 221.093 31.12C221.093 28.9867 220.653 27.2 219.773 25.76Z" fill="#9F0202"/>
<path d="M86.1206 53.4995H89.377L93.9321 64.5581L98.4873 53.4995H101.744L95.3887 68H92.4756L86.1206 53.4995ZM103.061 62.4893C103.061 61.7471 103.213 61.0389 103.516 60.3647C103.819 59.6844 104.255 59.0845 104.824 58.5649C105.393 58.0454 106.089 57.631 106.911 57.3218C107.74 57.0125 108.68 56.8579 109.731 56.8579C110.777 56.8579 111.717 57.0156 112.552 57.3311C113.393 57.6403 114.104 58.0671 114.686 58.6113C115.273 59.1556 115.722 59.7957 116.031 60.5317C116.346 61.2677 116.504 62.0563 116.504 62.8975C116.504 63.0026 116.501 63.117 116.495 63.2407C116.495 63.3582 116.488 63.4665 116.476 63.5654H106.123C106.24 63.8932 106.429 64.1932 106.688 64.4653C106.954 64.7375 107.285 64.9725 107.681 65.1704C108.077 65.3683 108.535 65.5229 109.054 65.6343C109.574 65.7394 110.149 65.792 110.78 65.792C111.411 65.792 112.038 65.7271 112.663 65.5972C113.288 65.4611 113.885 65.291 114.454 65.0869L115.381 67.1836C115.023 67.3506 114.658 67.499 114.287 67.6289C113.922 67.7526 113.538 67.8577 113.136 67.9443C112.74 68.0247 112.323 68.0866 111.884 68.1299C111.451 68.1732 110.993 68.1948 110.511 68.1948C109.28 68.1948 108.201 68.0464 107.273 67.7495C106.345 67.4526 105.569 67.0475 104.944 66.5342C104.32 66.0208 103.85 65.4178 103.534 64.7251C103.219 64.0324 103.061 63.2871 103.061 62.4893ZM113.591 61.4224C113.492 61.1193 113.337 60.8379 113.127 60.5781C112.923 60.3122 112.666 60.0833 112.357 59.8916C112.048 59.6937 111.689 59.5391 111.281 59.4277C110.873 59.3164 110.424 59.2607 109.936 59.2607C109.416 59.2607 108.943 59.3195 108.516 59.437C108.089 59.5545 107.715 59.7122 107.394 59.9102C107.072 60.1081 106.803 60.3369 106.586 60.5967C106.376 60.8564 106.222 61.1317 106.123 61.4224H113.591ZM119.463 57.0527H122.209V57.9805C122.939 57.5661 123.635 57.2754 124.297 57.1084C124.965 56.9414 125.617 56.8579 126.254 56.8579C127.089 56.8579 127.862 56.9816 128.574 57.229C129.285 57.4702 129.9 57.832 130.42 58.3145C130.939 58.7969 131.345 59.3999 131.635 60.1235C131.932 60.841 132.081 61.6729 132.081 62.6191V68H129.344V63.0645C129.344 62.4645 129.257 61.9295 129.084 61.4595C128.917 60.9832 128.673 60.5843 128.351 60.2627C128.036 59.9349 127.649 59.6875 127.191 59.5205C126.74 59.3473 126.233 59.2607 125.67 59.2607C125.373 59.2607 125.067 59.2917 124.751 59.3535C124.442 59.4154 124.136 59.505 123.833 59.6226C123.536 59.7339 123.249 59.8761 122.97 60.0493C122.692 60.2163 122.438 60.408 122.209 60.6245V68H119.463V57.0527ZM134.613 62.5728C134.613 61.7007 134.777 60.9152 135.105 60.2163C135.433 59.5112 135.884 58.9113 136.459 58.4165C137.041 57.9155 137.727 57.5321 138.519 57.2661C139.317 56.994 140.18 56.8579 141.107 56.8579C141.503 56.8579 141.893 56.8826 142.276 56.9321C142.666 56.9816 143.037 57.0496 143.39 57.1362C143.748 57.2228 144.082 57.328 144.392 57.4517C144.707 57.5692 144.985 57.6991 145.227 57.8413V52.6089H147.973V68H145.227V66.9702C144.985 67.1372 144.701 67.2949 144.373 67.4434C144.045 67.5918 143.693 67.7217 143.315 67.833C142.938 67.9443 142.545 68.0309 142.137 68.0928C141.735 68.1608 141.336 68.1948 140.94 68.1948C140.013 68.1948 139.159 68.0588 138.38 67.7866C137.607 67.5145 136.942 67.131 136.385 66.6362C135.829 66.1414 135.393 65.5508 135.077 64.8643C134.768 64.1715 134.613 63.4077 134.613 62.5728ZM137.499 62.5728C137.499 63.0119 137.585 63.4263 137.758 63.8159C137.938 64.2056 138.191 64.5488 138.519 64.8457C138.853 65.1364 139.252 65.3683 139.716 65.5415C140.186 65.7085 140.712 65.792 141.293 65.792C141.664 65.792 142.035 65.758 142.406 65.6899C142.777 65.6157 143.133 65.5137 143.473 65.3838C143.819 65.2539 144.141 65.0962 144.438 64.9106C144.741 64.7251 145.004 64.5179 145.227 64.2891V60.4946C144.948 60.272 144.654 60.0833 144.345 59.9287C144.036 59.7741 143.721 59.6473 143.399 59.5483C143.077 59.4494 142.753 59.3783 142.425 59.335C142.097 59.2855 141.778 59.2607 141.469 59.2607C140.838 59.2607 140.276 59.3473 139.781 59.5205C139.292 59.6875 138.878 59.9194 138.538 60.2163C138.204 60.5132 137.947 60.8626 137.768 61.2646C137.588 61.6667 137.499 62.1027 137.499 62.5728ZM150.682 62.5264C150.682 61.7409 150.839 61.0049 151.155 60.3184C151.476 59.6318 151.931 59.0319 152.519 58.5186C153.112 58.0052 153.827 57.6001 154.662 57.3032C155.503 57.0063 156.446 56.8579 157.491 56.8579C158.536 56.8579 159.477 57.0063 160.312 57.3032C161.153 57.6001 161.867 58.0052 162.455 58.5186C163.048 59.0319 163.503 59.6318 163.818 60.3184C164.14 61.0049 164.301 61.7409 164.301 62.5264C164.301 63.3118 164.14 64.0479 163.818 64.7344C163.503 65.4209 163.048 66.0208 162.455 66.5342C161.867 67.0475 161.153 67.4526 160.312 67.7495C159.477 68.0464 158.536 68.1948 157.491 68.1948C156.446 68.1948 155.503 68.0464 154.662 67.7495C153.827 67.4526 153.112 67.0475 152.519 66.5342C151.931 66.0208 151.476 65.4209 151.155 64.7344C150.839 64.0479 150.682 63.3118 150.682 62.5264ZM153.567 62.5264C153.567 62.9655 153.653 63.383 153.827 63.7788C154.006 64.1685 154.263 64.5148 154.597 64.8179C154.937 65.1147 155.348 65.3529 155.831 65.5322C156.319 65.7054 156.873 65.792 157.491 65.792C158.11 65.792 158.66 65.7054 159.143 65.5322C159.631 65.3529 160.042 65.1147 160.376 64.8179C160.717 64.5148 160.973 64.1685 161.146 63.7788C161.326 63.383 161.416 62.9655 161.416 62.5264C161.416 62.0872 161.326 61.6698 161.146 61.2739C160.973 60.8781 160.717 60.5317 160.376 60.2349C160.042 59.9318 159.631 59.6937 159.143 59.5205C158.66 59.3411 158.11 59.2515 157.491 59.2515C156.873 59.2515 156.319 59.3411 155.831 59.5205C155.348 59.6937 154.937 59.9318 154.597 60.2349C154.263 60.5317 154.006 60.8781 153.827 61.2739C153.653 61.6698 153.567 62.0872 153.567 62.5264ZM167.075 57.0527H169.821V58.6299C170.427 58.1784 171.067 57.7887 171.741 57.4609C172.415 57.1331 173.086 56.8826 173.754 56.7095L174.562 59.2236C173.504 59.3288 172.573 59.5669 171.769 59.938C170.971 60.3029 170.322 60.8193 169.821 61.4873V68H167.075V57.0527ZM177.048 64.6416C177.79 65.0869 178.606 65.4147 179.497 65.625C180.388 65.8353 181.3 65.9404 182.234 65.9404C182.865 65.9404 183.39 65.8971 183.811 65.8105C184.232 65.724 184.569 65.6126 184.822 65.4766C185.076 65.3405 185.255 65.1859 185.36 65.0127C185.465 64.8395 185.518 64.6632 185.518 64.4839C185.518 64.2241 185.404 64.0015 185.175 63.8159C184.952 63.6304 184.581 63.5376 184.062 63.5376C183.82 63.5376 183.561 63.5531 183.282 63.584C183.004 63.6149 182.71 63.6489 182.401 63.686C182.098 63.717 181.779 63.7479 181.445 63.7788C181.118 63.8097 180.784 63.8252 180.443 63.8252C179.701 63.8252 179.067 63.7448 178.542 63.584C178.022 63.4232 177.598 63.2036 177.271 62.9253C176.943 62.647 176.705 62.3192 176.556 61.9419C176.408 61.5584 176.333 61.1471 176.333 60.708C176.333 60.1514 176.463 59.638 176.723 59.168C176.983 58.6979 177.354 58.2928 177.836 57.9526C178.319 57.6063 178.9 57.3372 179.581 57.1455C180.267 56.9538 181.031 56.8579 181.872 56.8579C182.311 56.8579 182.769 56.8857 183.245 56.9414C183.728 56.9909 184.201 57.0589 184.665 57.1455C185.128 57.2321 185.574 57.3341 186 57.4517C186.427 57.563 186.805 57.6836 187.132 57.8135L186.27 59.9473C185.571 59.6875 184.872 59.4834 184.173 59.335C183.48 59.1803 182.766 59.103 182.03 59.103C181.516 59.103 181.08 59.1432 180.722 59.2236C180.369 59.2979 180.082 59.3999 179.859 59.5298C179.636 59.6535 179.472 59.7988 179.367 59.9658C179.268 60.1266 179.219 60.2967 179.219 60.4761C179.219 60.606 179.243 60.7235 179.293 60.8286C179.349 60.9338 179.435 61.0265 179.553 61.1069C179.676 61.1812 179.834 61.2399 180.026 61.2832C180.224 61.3203 180.465 61.3389 180.75 61.3389C181.009 61.3389 181.285 61.3234 181.575 61.2925C181.866 61.2616 182.169 61.2306 182.484 61.1997C182.8 61.1626 183.125 61.1286 183.458 61.0977C183.799 61.0667 184.145 61.0513 184.498 61.0513C185.153 61.0513 185.725 61.1286 186.214 61.2832C186.709 61.4378 187.117 61.6543 187.438 61.9326C187.76 62.2109 188.001 62.5387 188.162 62.916C188.323 63.2933 188.403 63.7046 188.403 64.1499C188.403 64.7251 188.27 65.2601 188.004 65.7549C187.738 66.2497 187.343 66.6795 186.817 67.0444C186.291 67.4032 185.636 67.6846 184.85 67.8887C184.071 68.0928 183.168 68.1948 182.141 68.1948C181.51 68.1948 180.901 68.1546 180.313 68.0742C179.726 68 179.166 67.8979 178.634 67.7681C178.102 67.632 177.601 67.4743 177.131 67.2949C176.667 67.1156 176.244 66.9238 175.86 66.7197L177.048 64.6416Z" fill="black"/>
<defs>
<filter id="filter0_b_242_963" x="9.25" y="9.25" width="65.2217" height="62.5" filterUnits="userSpaceOnUse" color-interpolation-filters="sRGB">
<feFlood flood-opacity="0" result="BackgroundImageFix"/>
<feGaussianBlur in="BackgroundImageFix" stdDeviation="2"/>
<feComposite in2="SourceAlpha" operator="in" result="effect1_backgroundBlur_242_963"/>
<feBlend mode="normal" in="SourceGraphic" in2="effect1_backgroundBlur_242_963" result="shape"/>
</filter>
</defs>
</svg>
